<svg xmlns="http://www.w3.org/2000/svg" xmlns:xlink="http://www.w3.org/1999/xlink" viewBox="0 0 82 81" fill="#fff" fill-rule="evenodd" stroke="#000" stroke-linecap="round" stroke-linejoin="round"><use xlink:href="#A" x=".5" y=".5"/><symbol id="A" overflow="visible"><g stroke="none"><path d="M0 40C0 17.84 17.84 0 40 0s40 17.84 40 40-17.84 40-40 40S0 62.16 0 40z" fill="#0072c6"/><path d="M11.716 68.285c-15.62-15.62-15.62-40.947 0-56.568s40.947-15.62 56.568 0L11.716 68.285z" opacity=".2"/><path d="M76.8 39.994c0-8.243-2.797-16.192-7.95-22.67h0l-.294-.294c-.147-.147-.147-.294-.294-.442l-2.355-2.502C59 7.02 49.863 3.194 40 3.194h-.294C29.99 3.34 21.012 7.02 14.094 13.94h0l-2.502 2.65c-.147.147-.147.295-.294.442l-.294.147C5.998 23.655 3.2 31.75 3.2 39.994s2.797 16.192 7.95 22.67h0l.294.294c.147.147.147.294.294.442l2.355 2.502c6.918 6.918 15.898 10.746 25.613 10.746H40c9.715 0 18.99-3.827 25.907-10.746h0l2.355-2.65c.147-.147.147-.294.294-.442l.294-.294c5.152-6.182 7.95-14.28 7.95-22.522zM61.934 16c-.147 0-.294.147-.442.147-.294.147-.59.294-.736.294-.59.294-1.325.442-2.06.736-.147 0-.294.147-.442.147-.883.294-1.62.442-2.502.736h0c-.147 0-.442.147-.59.147-1.325-3.533-2.944-6.624-4.858-8.98 4.27 1.325 8.243 3.68 11.63 6.77zM39.706 7.463h.147c3.974 0 8.096 4.27 11.04 11.63-3.386.59-7.066.883-10.893.883s-7.654-.294-11.187-.883C31.61 11.88 35.732 7.6 39.706 7.463zm-10.45 1.914c-1.766 2.355-3.386 5.3-4.7 8.832h-.294c-.883-.294-1.766-.442-2.502-.736-.147 0-.294-.147-.442-.147-.59-.294-1.325-.59-1.914-.883-.294-.147-.442-.147-.736-.294-.147-.147-.294-.147-.59-.294 3.386-2.797 7.066-5.152 11.187-6.477zm-11.187 54.61c.147 0 .294-.147.442-.147.294-.147.442-.147.736-.294.59-.294 1.325-.442 2.06-.736.147 0 .294-.147.442-.147.883-.294 1.62-.442 2.502-.736h.294c1.325 3.386 2.944 6.477 4.7 8.832-4.122-1.472-7.95-3.827-11.187-6.77zm21.786 8.538h-.147c-3.974-.147-8.096-4.27-10.893-11.482 3.533-.59 7.36-.883 11.187-.883s7.36.294 10.893.883c-2.797 7.213-7.066 11.482-11.04 11.482zm10.45-1.766c1.914-2.355 3.533-5.446 4.858-8.98.147 0 .442.147.59.147h0c.883.294 1.766.442 2.502.736.147 0 .294.147.442.147.736.294 1.325.442 2.06.736.294.147.442.147.736.294.147 0 .294.147.59.294-3.533 2.944-7.507 5.3-11.776 6.624zm14.867-10.157h0c-.442 0-.736-.147-1.178-.294s-1.03-.442-1.472-.59c-.147 0-.294-.147-.442-.147-1.766-.736-3.68-1.177-5.594-1.766.442-1.766.883-3.533 1.178-5.3H53.25c-.294 1.62-.59 3.09-1.03 4.416-3.827-.736-7.95-1.03-12.218-1.03-4.416 0-8.537.442-12.512 1.178-.442-1.472-.736-2.944-1.03-4.563h-4.416c.294 1.914.736 3.68 1.178 5.447-1.766.442-3.533 1.03-5.152 1.62-.147.147-.442.147-.59.295-.442.147-1.03.442-1.472.59-.294 0-.736.147-1.03.295h0c-4.416-5.3-6.918-11.923-7.36-18.695h3.68v-4.27h-3.68c.442-6.77 2.944-13.248 7.213-18.4l.147-.147c.294.147.736.295 1.03.442.59.294 1.03.44 1.62.736.147 0 .294.147.442.147 1.62.59 3.386 1.178 5.3 1.62-.442 1.62-.736 3.238-1.03 4.858h4.416l.883-3.974c3.974.736 8.243 1.178 12.512 1.178s8.4-.442 12.218-1.03c.294 1.178.59 2.502.883 3.974h4.416c-.294-1.62-.59-3.238-1.03-4.858 1.914-.442 3.68-1.03 5.446-1.766.147 0 .442-.147.59-.147.59-.147 1.03-.442 1.62-.59.294-.147.736-.294 1.03-.442h0c4.27 5.3 6.918 11.776 7.36 18.547h-4.416v4.27h4.416c-.736 6.624-3.238 13.248-7.507 18.4z" opacity=".8"/><path d="M30.756 39.768c0 1.744-.23 3.237-.683 4.475s-1.1 2.25-1.962 3.034-1.888 1.36-3.1 1.726-2.672.55-4.357.55h-4.54c-.322 0-.597-.096-.816-.285s-.33-.502-.33-.933V31.76c0-.432.1-.742.33-.933a1.22 1.22 0 0 1 .816-.287h4.878c1.694 0 3.133.198 4.314.597s2.174.984 2.984 1.763 1.422 1.74 1.845 2.886.63 2.474.63 3.98zm-3.997.133c0-.902-.106-1.74-.317-2.514a5.36 5.36 0 0 0-1.014-2.013c-.466-.568-1.062-1-1.794-1.33s-1.686-.478-2.874-.478h-1.955v12.93h2.014c1.058 0 1.95-.136 2.675-.4a4.47 4.47 0 0 0 1.814-1.24c.484-.552.848-1.242 1.088-2.066s.362-1.78.362-2.88zm22.85 8.304a1.45 1.45 0 0 1-.117.602 1.33 1.33 0 0 1-.318.442 1.19 1.19 0 0 1-.469.256 1.92 1.92 0 0 1-.552.082H46.51c-.344 0-.638-.034-.9-.102s-.48-.194-.7-.374-.414-.427-.6-.734l-.66-1.2-4.733-8.9-.837-1.712-.765-1.785h-.03l.088 2.107.03 2.166V49a.45.45 0 0 1-.082.266c-.055.08-.147.144-.28.198a2.13 2.13 0 0 1-.536.123c-.226.03-.515.045-.867.045-.342 0-.627-.014-.853-.045s-.402-.07-.528-.123-.216-.12-.266-.198a.5.5 0 0 1-.074-.266V31.9c0-.46.134-.805.403-1.037a1.48 1.48 0 0 1 .992-.346h2.07c.373 0 .686.032.94.096a1.92 1.92 0 0 1 .683.317 2.44 2.44 0 0 1 .566.61 7.72 7.72 0 0 1 .542.963l3.704 6.95.638 1.242.6 1.22.573 1.197.542 1.176h.014l-.066-2.145-.02-2.13v-8.92c0-.098.03-.186.086-.266s.157-.147.294-.205a1.9 1.9 0 0 1 .542-.125 7.92 7.92 0 0 1 .867-.037l.837.037c.226.026.398.066.523.125s.208.126.258.205a.5.5 0 0 1 .072.266v17.1h.008zm15.414-4.352c0 1.002-.187 1.877-.558 2.63s-.877 1.386-1.514 1.888-1.382.883-2.235 1.14a9.5 9.5 0 0 1-2.733.381 9.82 9.82 0 0 1-1.83-.162c-.564-.107-1.06-.237-1.5-.4s-.792-.3-1.08-.478-.5-.314-.626-.442-.216-.3-.272-.55-.082-.586-.082-1.037l.03-.763a2.12 2.12 0 0 1 .096-.5c.046-.127.102-.218.176-.272a.43.43 0 0 1 .258-.082c.138 0 .33.082.58.243s.57.34.963.536.86.374 1.403.536 1.173.243 1.888.243c.47 0 .9-.056 1.262-.17a2.83 2.83 0 0 0 .947-.478c.26-.205.456-.46.595-.763a2.43 2.43 0 0 0 .206-1.014c0-.432-.118-.8-.354-1.1s-.542-.584-.92-.824a9.38 9.38 0 0 0-1.285-.675l-1.483-.67c-.5-.235-1.003-.502-1.483-.8a6.14 6.14 0 0 1-1.285-1.074c-.385-.418-.683-.9-.92-1.478s-.354-1.248-.354-2.043c0-.9.17-1.712.507-2.403a4.95 4.95 0 0 1 1.366-1.72c.572-.458 1.25-.797 2.03-1.02a8.92 8.92 0 0 1 2.475-.338 9.05 9.05 0 0 1 1.352.102 9.12 9.12 0 0 1 1.262.28 6.94 6.94 0 0 1 1.043.397c.303.147.506.27.602.368a1.07 1.07 0 0 1 .198.25 1.16 1.16 0 0 1 .088.272c.024.112.042.254.05.427l.016.64-.024.72a2.88 2.88 0 0 1-.072.485.59.59 0 0 1-.147.28c-.064.06-.15.088-.258.088s-.28-.067-.515-.205a11.87 11.87 0 0 0-.867-.45 8.47 8.47 0 0 0-1.189-.442c-.45-.133-.946-.198-1.483-.198-.42 0-.8.05-1.1.155s-.578.245-.786.427a1.68 1.68 0 0 0-.47.653 2.16 2.16 0 0 0-.154.808c0 .42.115.786.344 1.096s.54.582.926.822a9.82 9.82 0 0 0 1.317.675l1.5.67a15.05 15.05 0 0 1 1.5.8 6.01 6.01 0 0 1 1.31 1.073c.385.417.7.907.925 1.47.237.568.355 1.23.355 1.994z"/></g></symbol></svg>